<?xml version="1.0" encoding="utf-8"?>
<!-- Generator: Adobe Illustrator 22.1.0, SVG Export Plug-In . SVG Version: 6.00 Build 0)  -->
<svg version="1.1" id="图层_1" xmlns="http://www.w3.org/2000/svg" xmlns:xlink="http://www.w3.org/1999/xlink" x="0px" y="0px"
	 viewBox="0 0 612 792" style="enable-background:new 0 0 612 792;" xml:space="preserve">
<style type="text/css">
	.st0{clip-path:url(#SVGID_2_);}
</style>
<g>
	<g>
		<defs>
			<rect id="SVGID_1_" x="6" y="68" width="600" height="656.9"/>
		</defs>
		<clipPath id="SVGID_2_">
			<use xlink:href="#SVGID_1_"  style="overflow:visible;"/>
		</clipPath>
		<path class="st0" d="M332.8,512.1c-8.1,0-18.7,1.6-23.6,9.5c-1.1,1.8-2.5,3.3-4,4.7c-1.8,1.6-18.2,15.2-39.3,15.2
			c-13.3,0-25.4-5.3-35.2-15.3c-1.1-0.9-2.1-2-3-3.1c-20.4-26.4-39-54.2-55.4-83.3c-15.1-26.6-28.4-54.2-39.8-82.6
			c-0.5-1.1-0.8-2.3-1.1-3.5c-4.3-20.6-1.3-37.2,8.6-49.6c13.1-16.1,32.5-16.7,34.3-16.7c2.1-0.1,8.5-0.2,16-8.9
			c16.1-18.7,23-57.8,17.7-99.5c-8-63.2-41.2-110.4-65.8-110.4c-1,0-1.9,0.2-2.9,0.4c-1.7,0.3-3.4,0.4-5.1,0.3
			c-23.5-1.4-44.9,3.2-63.1,13.6c-90.7,51.8-86,239.2,10.1,409.2c77.2,136.5,196.2,231.9,289.5,231.9c20.4,0,38.8-4.6,54.9-13.8
			c17.7-10.1,34.1-27.4,45.1-46.4c0.9-1.6,2.1-3.6,3.8-6.8c11-20.7-10.5-71.2-59.4-109.6C387.1,525.3,356.3,512.1,332.8,512.1
			L332.8,512.1z M416.3,376.5c-6.2,0-12.1-2.8-16-7.5c-4-4.8-5.6-11-4.5-17.1c2-10.8-0.4-21.9-6.6-30.9
			c-6.2-9.1-15.8-15.3-26.6-17.2c-11.3-2.1-18.8-12.9-16.7-24.3c2.1-11.3,13-18.8,24.3-16.7c21.7,3.9,40.9,16.4,53.4,34.5
			c12.6,18.1,17.3,40.2,13.4,62.1C435,369.3,426.4,376.5,416.3,376.5L416.3,376.5z M494.6,378.5c-6.2,0-12.1-2.7-16-7.5
			c-4-4.8-5.6-11-4.5-17.1c5.7-31.4-1.1-63.2-19.3-89.5c-18.2-26.3-45.5-44-76.9-49.8c-11.3-2.1-18.8-12.9-16.7-24.3
			c1-5.5,4.1-10.3,8.6-13.4c4.6-3.1,10.2-4.3,15.6-3.3c42.3,7.8,79.2,31.6,103.7,67.1c24.5,35.5,33.7,78.4,25.9,120.7
			C513.3,371.3,504.7,378.5,494.6,378.5L494.6,378.5z M494.6,378.5"/>
		<path class="st0" d="M581.2,375.4c-1.3,0-2.5-0.1-3.8-0.4c-11.3-2.1-18.8-12.9-16.8-24.3c9.5-52-1.8-104.7-31.8-148.2
			c-30-43.5-75.2-72.7-127.3-82.3c-11.3-2.1-18.8-13-16.7-24.3c2.1-11.3,12.8-18.8,24.3-16.7c63,11.5,117.7,46.9,154.1,99.6
			c36.4,52.7,50,116.4,38.5,179.4C599.9,368.2,591.3,375.4,581.2,375.4L581.2,375.4z M581.2,375.4"/>
	</g>
</g>
</svg>
